<mxfile host="app.diagrams.net" modified="2023-08-07T17:24:49.714Z" agent="Mozilla/5.0 (Windows NT 10.0; Win64; x64) AppleWebKit/537.36 (KHTML, like Gecko) Chrome/115.0.0.0 Safari/537.36 GLS/91.10.7119.20" etag="XrmzcAh-yPGhDEducT7C" version="21.6.6" type="github">
  <diagram name="Strona-1" id="xlUswNLcpfCkkaKtKQq7">
    <mxGraphModel dx="1050" dy="542" grid="1" gridSize="10" guides="1" tooltips="1" connect="1" arrows="1" fold="1" page="1" pageScale="1" pageWidth="827" pageHeight="1169" math="0" shadow="0">
      <root>
        <mxCell id="0" />
        <mxCell id="1" parent="0" />
        <mxCell id="k5lSxSYKH9dc4zWqOEDD-3" value="" style="edgeStyle=orthogonalEdgeStyle;rounded=0;orthogonalLoop=1;jettySize=auto;html=1;" parent="1" source="k5lSxSYKH9dc4zWqOEDD-1" target="k5lSxSYKH9dc4zWqOEDD-2" edge="1">
          <mxGeometry relative="1" as="geometry" />
        </mxCell>
        <mxCell id="k5lSxSYKH9dc4zWqOEDD-1" value="Start" style="ellipse;whiteSpace=wrap;html=1;" parent="1" vertex="1">
          <mxGeometry x="330" y="20" width="120" height="50" as="geometry" />
        </mxCell>
        <mxCell id="k5lSxSYKH9dc4zWqOEDD-5" value="" style="edgeStyle=orthogonalEdgeStyle;rounded=0;orthogonalLoop=1;jettySize=auto;html=1;" parent="1" source="k5lSxSYKH9dc4zWqOEDD-2" target="k5lSxSYKH9dc4zWqOEDD-4" edge="1">
          <mxGeometry relative="1" as="geometry" />
        </mxCell>
        <mxCell id="k5lSxSYKH9dc4zWqOEDD-2" value="next = 0&lt;br&gt;escape = 100&lt;br&gt;sum = 0" style="whiteSpace=wrap;html=1;" parent="1" vertex="1">
          <mxGeometry x="330" y="110" width="120" height="60" as="geometry" />
        </mxCell>
        <mxCell id="k5lSxSYKH9dc4zWqOEDD-7" value="" style="edgeStyle=orthogonalEdgeStyle;rounded=0;orthogonalLoop=1;jettySize=auto;html=1;" parent="1" source="k5lSxSYKH9dc4zWqOEDD-4" target="k5lSxSYKH9dc4zWqOEDD-6" edge="1">
          <mxGeometry relative="1" as="geometry" />
        </mxCell>
        <mxCell id="k5lSxSYKH9dc4zWqOEDD-4" value="enter next" style="shape=parallelogram;perimeter=parallelogramPerimeter;whiteSpace=wrap;html=1;fixedSize=1;" parent="1" vertex="1">
          <mxGeometry x="330" y="210" width="120" height="60" as="geometry" />
        </mxCell>
        <mxCell id="k5lSxSYKH9dc4zWqOEDD-9" value="" style="edgeStyle=orthogonalEdgeStyle;rounded=0;orthogonalLoop=1;jettySize=auto;html=1;" parent="1" source="k5lSxSYKH9dc4zWqOEDD-6" target="k5lSxSYKH9dc4zWqOEDD-8" edge="1">
          <mxGeometry relative="1" as="geometry" />
        </mxCell>
        <mxCell id="k5lSxSYKH9dc4zWqOEDD-11" value="" style="edgeStyle=orthogonalEdgeStyle;rounded=0;orthogonalLoop=1;jettySize=auto;html=1;" parent="1" source="k5lSxSYKH9dc4zWqOEDD-6" edge="1">
          <mxGeometry relative="1" as="geometry">
            <mxPoint x="390" y="440" as="targetPoint" />
          </mxGeometry>
        </mxCell>
        <mxCell id="k5lSxSYKH9dc4zWqOEDD-20" value="" style="edgeStyle=orthogonalEdgeStyle;rounded=0;orthogonalLoop=1;jettySize=auto;html=1;" parent="1" source="k5lSxSYKH9dc4zWqOEDD-6" target="k5lSxSYKH9dc4zWqOEDD-29" edge="1">
          <mxGeometry relative="1" as="geometry">
            <mxPoint x="390" y="450" as="targetPoint" />
          </mxGeometry>
        </mxCell>
        <mxCell id="k5lSxSYKH9dc4zWqOEDD-6" value="if next &amp;lt; escape" style="rhombus;whiteSpace=wrap;html=1;" parent="1" vertex="1">
          <mxGeometry x="340" y="310" width="100" height="90" as="geometry" />
        </mxCell>
        <mxCell id="k5lSxSYKH9dc4zWqOEDD-18" style="edgeStyle=orthogonalEdgeStyle;rounded=0;orthogonalLoop=1;jettySize=auto;html=1;exitX=0.5;exitY=0;exitDx=0;exitDy=0;entryX=1;entryY=0.5;entryDx=0;entryDy=0;" parent="1" source="k5lSxSYKH9dc4zWqOEDD-8" target="k5lSxSYKH9dc4zWqOEDD-4" edge="1">
          <mxGeometry relative="1" as="geometry">
            <mxPoint x="500" y="170" as="targetPoint" />
            <Array as="points">
              <mxPoint x="570" y="240" />
            </Array>
          </mxGeometry>
        </mxCell>
        <mxCell id="k5lSxSYKH9dc4zWqOEDD-8" value="sum += next" style="whiteSpace=wrap;html=1;" parent="1" vertex="1">
          <mxGeometry x="510" y="325" width="120" height="60" as="geometry" />
        </mxCell>
        <mxCell id="k5lSxSYKH9dc4zWqOEDD-31" value="" style="edgeStyle=orthogonalEdgeStyle;rounded=0;orthogonalLoop=1;jettySize=auto;html=1;" parent="1" source="k5lSxSYKH9dc4zWqOEDD-29" target="k5lSxSYKH9dc4zWqOEDD-30" edge="1">
          <mxGeometry relative="1" as="geometry" />
        </mxCell>
        <mxCell id="k5lSxSYKH9dc4zWqOEDD-29" value="mod = sum % 2" style="rounded=0;whiteSpace=wrap;html=1;" parent="1" vertex="1">
          <mxGeometry x="330" y="420" width="120" height="60" as="geometry" />
        </mxCell>
        <mxCell id="k5lSxSYKH9dc4zWqOEDD-33" value="" style="edgeStyle=orthogonalEdgeStyle;rounded=0;orthogonalLoop=1;jettySize=auto;html=1;" parent="1" source="k5lSxSYKH9dc4zWqOEDD-30" target="k5lSxSYKH9dc4zWqOEDD-32" edge="1">
          <mxGeometry relative="1" as="geometry" />
        </mxCell>
        <mxCell id="k5lSxSYKH9dc4zWqOEDD-35" value="" style="edgeStyle=orthogonalEdgeStyle;rounded=0;orthogonalLoop=1;jettySize=auto;html=1;" parent="1" source="k5lSxSYKH9dc4zWqOEDD-30" target="k5lSxSYKH9dc4zWqOEDD-34" edge="1">
          <mxGeometry relative="1" as="geometry" />
        </mxCell>
        <mxCell id="k5lSxSYKH9dc4zWqOEDD-30" value="if mod == 0" style="rhombus;whiteSpace=wrap;html=1;rounded=0;" parent="1" vertex="1">
          <mxGeometry x="350" y="520" width="80" height="80" as="geometry" />
        </mxCell>
        <mxCell id="k5lSxSYKH9dc4zWqOEDD-39" style="edgeStyle=orthogonalEdgeStyle;rounded=0;orthogonalLoop=1;jettySize=auto;html=1;entryX=1;entryY=0.5;entryDx=0;entryDy=0;" parent="1" source="k5lSxSYKH9dc4zWqOEDD-32" target="k5lSxSYKH9dc4zWqOEDD-36" edge="1">
          <mxGeometry relative="1" as="geometry">
            <mxPoint x="550" y="860" as="targetPoint" />
            <Array as="points">
              <mxPoint x="550" y="730" />
            </Array>
          </mxGeometry>
        </mxCell>
        <mxCell id="k5lSxSYKH9dc4zWqOEDD-32" value="display &quot;odd&quot;" style="shape=parallelogram;perimeter=parallelogramPerimeter;whiteSpace=wrap;html=1;fixedSize=1;rounded=0;" parent="1" vertex="1">
          <mxGeometry x="490" y="530" width="120" height="60" as="geometry" />
        </mxCell>
        <mxCell id="k5lSxSYKH9dc4zWqOEDD-38" style="edgeStyle=orthogonalEdgeStyle;rounded=0;orthogonalLoop=1;jettySize=auto;html=1;entryX=0;entryY=0.5;entryDx=0;entryDy=0;" parent="1" target="k5lSxSYKH9dc4zWqOEDD-36" edge="1">
          <mxGeometry relative="1" as="geometry">
            <mxPoint x="340" y="730" as="targetPoint" />
            <mxPoint x="220" y="590" as="sourcePoint" />
            <Array as="points">
              <mxPoint x="220" y="730" />
            </Array>
          </mxGeometry>
        </mxCell>
        <mxCell id="k5lSxSYKH9dc4zWqOEDD-34" value="display &quot;even&quot;" style="shape=parallelogram;perimeter=parallelogramPerimeter;whiteSpace=wrap;html=1;fixedSize=1;rounded=0;" parent="1" vertex="1">
          <mxGeometry x="170" y="530" width="120" height="60" as="geometry" />
        </mxCell>
        <mxCell id="k5lSxSYKH9dc4zWqOEDD-36" value="stop" style="ellipse;whiteSpace=wrap;html=1;rounded=0;" parent="1" vertex="1">
          <mxGeometry x="350" y="690" width="80" height="80" as="geometry" />
        </mxCell>
      </root>
    </mxGraphModel>
  </diagram>
</mxfile>
